<?xml version="1.0" encoding="UTF-8"?>
<svg version="1.1" xmlns="http://www.w3.org/2000/svg" width="1148" height="1136">
<path d="M0 0 C1.27736896 -0.00230769 2.55473793 -0.00461538 3.87081504 -0.006993 C7.38807515 -0.01306996 10.90521773 -0.00683243 14.42246899 0.00156327 C18.25953301 0.00848218 22.09658611 0.00368053 25.93365252 0.00040829 C32.64893624 -0.00372487 39.36418439 -0.00047619 46.07946396 0.00768471 C56.06473616 0.01978571 66.04998608 0.02035344 76.03526428 0.01860073 C92.83442621 0.01597653 109.63357238 0.02264208 126.43272972 0.03463554 C143.06161896 0.04647697 159.69050164 0.05416893 176.31939507 0.05634117 C177.35403375 0.05647865 178.38867244 0.05661613 179.45466382 0.05675778 C184.70925194 0.05743446 189.96384007 0.05803722 195.21842821 0.05861153 C232.41900292 0.06281031 269.61956905 0.07627934 306.82013893 0.09521675 C342.95588066 0.11359084 379.09162003 0.12775551 415.22736549 0.13623238 C416.89869309 0.13662695 416.89869309 0.13662695 418.60378489 0.1370295 C429.79340994 0.13966659 440.983035 0.14221821 452.17266009 0.14470722 C474.96641821 0.1497794 497.76017619 0.15542191 520.5539341 0.16140938 C521.60191226 0.16168396 522.64989043 0.16195854 523.72962551 0.16224144 C593.69013876 0.1806371 663.65064725 0.21232684 733.61115456 0.24609566 C733.64162765 7.20943256 733.66221166 14.17275186 733.67638588 21.13614082 C733.68230405 23.4978417 733.69036645 25.85953832 733.70073891 28.22122383 C733.77729916 46.1202056 733.21412406 63.51043172 730.61115456 81.24609566 C730.45550026 82.36758003 730.29984596 83.48906441 730.13947487 84.64453316 C721.02392298 148.83548536 697.47643643 211.98003692 665.61115456 268.24609566 C664.60022787 270.05570667 663.58981426 271.86560439 662.57990456 273.67578316 C656.33067366 284.81300644 649.72926645 295.64382813 642.61115456 306.24609566 C642.1748069 306.89852242 641.73845924 307.55094917 641.28888893 308.22314644 C631.09865378 323.40659681 620.36139472 338.23021372 608.61115456 352.24609566 C607.15243475 354.05828464 605.69411109 355.87079255 604.23615456 357.68359566 C600.13031925 362.70821929 595.8052728 367.48063838 591.38459206 372.22656441 C589.33780946 374.43014697 587.36299145 376.68503788 585.4004612 378.96386909 C581.81973301 383.06172722 578.061826 386.94044739 574.20881081 390.78125191 C573.52741539 391.46360405 572.84601997 392.14595619 572.14397621 392.84898567 C570.71409715 394.27954002 569.28297544 395.70885333 567.85065651 397.1369648 C565.67917744 399.3030864 563.5130913 401.4744974 561.34748268 403.64648628 C559.94741254 405.04589553 558.54703217 406.44499449 557.14631081 407.84375191 C556.50959953 408.48248741 555.87288826 409.12122292 555.21688271 409.77931404 C550.84210753 414.13175601 546.28948327 418.22355374 541.61115456 422.24609566 C540.52811426 423.19546661 539.44590059 424.14578272 538.36506081 425.09765816 C530.08522663 432.31901275 521.50387801 439.06156247 512.71955299 445.65674019 C510.70777667 447.17325986 508.70866996 448.70493061 506.71271706 450.24218941 C436.89336576 503.76296105 353.15010851 537.87833867 259.61115456 551.24609566 C258.32225319 551.42543648 257.03335182 551.6047773 255.70539284 551.78955269 C237.30124638 554.22521775 219.0857687 554.39210475 200.55256081 554.31640816 C198.12454278 554.31075206 195.69652346 554.30562132 193.26850319 554.3010273 C187.38269181 554.28876549 181.49692937 554.27004909 175.61115456 554.24609566 C175.61201874 554.87829401 175.61288292 555.51049237 175.61377329 556.16184825 C175.71415395 630.98931946 175.70132217 705.81445116 175.20881081 780.64062691 C175.20109623 781.81425562 175.20109623 781.81425562 175.1932258 783.011594 C175.0673937 802.11406866 174.93291667 821.21647882 174.79426496 840.31886433 C174.70721856 852.31208726 174.62290937 864.30532619 174.5410862 876.29858589 C174.5356686 877.09244478 174.53025101 877.88630366 174.52466924 878.70421888 C174.50280117 881.90972304 174.48094791 885.11522731 174.45911369 888.32073171 C173.91756683 967.81007565 173.31477857 1047.29894684 172.61115456 1136.24609566 C166.30953403 1136.26531618 160.00792123 1136.2783319 153.70627785 1136.28729439 C151.56829483 1136.29103588 149.43031369 1136.29613086 147.29233742 1136.30267525 C131.95372772 1136.34840727 116.85649432 1136.1016905 101.61115456 1134.24609566 C100.57168678 1134.12782417 99.53221901 1134.00955269 98.46125221 1133.88769722 C67.4875261 1130.28471532 37.22867175 1122.87814757 7.61115456 1113.24609566 C5.95430641 1112.71097359 5.95430641 1112.71097359 4.26398659 1112.16504097 C-61.76148886 1090.63906195 -126.33896615 1056.18339971 -179.38884544 1011.24609566 C-180.45490019 1010.35374848 -181.5213266 1009.46184518 -182.58806419 1008.57031441 C-188.44973582 1003.65669108 -194.22493208 998.66668451 -199.87712669 993.51172066 C-201.27984677 992.2464366 -202.68865454 990.98754263 -204.11922264 989.75383186 C-208.90820557 985.62349009 -213.46027722 981.32166744 -217.92400169 976.84375191 C-218.60635384 976.16235649 -219.28870598 975.48096107 -219.99173546 974.77891731 C-221.42228981 973.34903825 -222.85160312 971.91791655 -224.27971458 970.48559761 C-226.44583618 968.31411854 -228.61724718 966.1480324 -230.78923607 963.98242378 C-232.18864532 962.58235364 -233.58774428 961.18197327 -234.98650169 959.78125191 C-235.6252372 959.14454063 -236.2639727 958.50782936 -236.92206383 957.85182381 C-241.2743642 953.47719095 -245.36931054 948.9269029 -249.38884544 944.24609566 C-250.36213708 943.12832729 -251.33598211 942.01104017 -252.31072044 940.89453316 C-259.26122303 932.8712725 -265.95901066 924.69255079 -272.38884544 916.24609566 C-272.91172142 915.55983101 -273.4345974 914.87356636 -273.9733181 914.16650581 C-287.51909084 896.29344458 -300.22854266 877.70844185 -311.38884544 858.24609566 C-311.73399193 857.65054878 -312.07913841 857.05500191 -312.43474388 856.44140816 C-315.15191118 851.74519193 -317.79122852 847.00940489 -320.38884544 842.24609566 C-320.84130638 841.41642281 -321.29376732 840.58674995 -321.75993919 839.7319355 C-334.75074671 815.74382854 -345.32712039 790.96246353 -354.38884544 765.24609566 C-354.71191673 764.34262398 -355.03498802 763.4391523 -355.36784935 762.50830269 C-378.01426055 698.91718003 -382.73352455 633.32401123 -382.65749645 566.37352705 C-382.65234605 560.3989295 -382.65715139 554.42433733 -382.66026878 548.44973946 C-382.66387753 538.44678814 -382.65918623 528.44386664 -382.64958763 518.44091988 C-382.63865521 506.9155983 -382.6422757 495.39034725 -382.65324044 483.86502731 C-382.66233811 473.89817419 -382.66358809 463.93134218 -382.6583631 453.96448624 C-382.65526389 448.04168041 -382.65477827 442.11890769 -382.66143608 436.19610405 C-382.66724718 430.64221723 -382.66314434 425.0884211 -382.65164757 419.53454399 C-382.64902333 417.50899595 -382.64972735 415.48344015 -382.6541729 413.45789528 C-382.7183696 381.21756051 -375.7442195 352.29201008 -354.38884544 327.24609566 C-353.79716576 326.50875191 -353.20548607 325.77140816 -352.59587669 325.01172066 C-336.35710352 305.48364375 -312.52575555 294.40464166 -288.38884544 288.24609566 C-289.67275169 288.09914253 -290.95665794 287.95218941 -292.27947044 287.80078316 C-316.41774127 284.82839594 -338.64098446 277.78351518 -358.38884544 263.24609566 C-359.19064232 262.66730659 -359.99243919 262.08851753 -360.81853294 261.49218941 C-373.65514486 251.74899052 -384.8206757 239.88146257 -393.38884544 226.24609566 C-393.77765892 225.63185738 -394.1664724 225.01761909 -394.5670681 224.38476753 C-409.72125159 200.03317478 -414.58351792 173.48629438 -414.50237083 145.12402534 C-414.50208799 143.75281463 -414.50224859 142.38160377 -414.50281334 141.01039314 C-414.50309752 137.3273233 -414.49726271 133.64428674 -414.49023938 129.96122456 C-414.48394212 126.09754485 -414.48339704 122.23386418 -414.48221397 118.37018013 C-414.47911931 111.07134163 -414.47093131 103.77251831 -414.46086448 96.47368646 C-414.44964511 88.15676078 -414.44417829 79.83983434 -414.43916905 71.52290297 C-414.42874693 54.43062512 -414.41118398 37.338362 -414.38884544 20.24609566 C-391.37830999 20.17578343 -368.36779243 20.1229992 -345.35717106 20.09065914 C-334.67115929 20.07523902 -323.98521455 20.05424316 -313.29924583 20.0197773 C-303.97730533 19.98972541 -294.65541342 19.97048545 -285.33342582 19.96383017 C-280.40481819 19.95994447 -275.47634949 19.95091571 -270.54778671 19.92890549 C-265.89305686 19.90828987 -261.23852094 19.90231155 -256.58374977 19.90677261 C-254.8904718 19.90595847 -253.1971862 19.90014407 -251.50394821 19.88847923 C-214.34330849 19.64539642 -181.28922225 32.31129156 -154.38884544 58.24609566 C-137.03466379 76.03481942 -126.30365384 98.29682465 -120.38884544 122.24609566 C-120.35444359 121.58827095 -120.32004173 120.93044624 -120.2845974 120.25268745 C-118.17347102 82.61572282 -105.84288694 51.80737032 -77.38884544 26.24609566 C-55.92357201 7.80078908 -27.88564429 -0.12612205 0 0 Z M-118.38884544 288.24609566 C-118.52949376 309.31806831 -118.63504948 330.38996269 -118.69971848 351.46231079 C-118.73055401 361.24830961 -118.77253553 371.03401546 -118.84148216 380.81982613 C-118.90160179 389.35691896 -118.9400693 397.89379944 -118.95337641 406.4310981 C-118.96114555 410.94460756 -118.97918482 415.45750994 -119.02322578 419.97082329 C-119.67691398 445.78676411 -119.67691398 445.78676411 -112.38884544 470.24609566 C-111.72870445 471.73595985 -111.72870445 471.73595985 -111.05522728 473.25592232 C-110.01113593 475.57008082 -108.86863948 477.77593199 -107.63884544 479.99609566 C-107.21329369 480.78065132 -106.78774193 481.56520699 -106.34929466 482.37353706 C-88.69852321 514.22801868 -59.3605536 538.47908396 -24.62322044 549.43359566 C-2.26516501 555.84324888 21.46089578 554.4631161 44.46258569 554.24695444 C49.08689956 554.20580831 53.71129166 554.17702256 58.33568764 554.14682198 C67.05802005 554.08803381 75.7802298 554.0184272 84.50244778 553.94475114 C94.44706352 553.86129 104.39175618 553.79016722 114.33647311 553.71998525 C134.76148013 553.57557017 155.18634444 553.41597114 175.61115456 553.24609566 C175.65808426 535.5640125 175.69324537 517.88194905 175.7147789 500.19981766 C175.72504751 491.98784605 175.73902229 483.77591336 175.76203346 475.56396675 C175.78210373 468.39805633 175.79490298 461.23217413 175.79933155 454.06623638 C175.80191609 450.27954667 175.80789617 446.49293762 175.82261467 442.70627403 C176.18579948 414.93453621 176.18579948 414.93453621 171.42365456 387.68359566 C171.20934792 386.90532417 170.99504128 386.12705269 170.77424049 385.32519722 C161.19705458 351.87955078 139.01816331 322.73919458 108.67365456 305.49609566 C86.46499006 293.252007 63.81108431 287.72864142 38.61676979 287.90551949 C36.89014641 287.90636842 35.16352195 287.90588544 33.43689919 287.90419197 C28.80779015 287.90334098 24.17892047 287.92081927 19.54986644 287.94191384 C14.69059362 287.96083228 9.83131363 287.96244291 4.97200966 287.96599007 C-4.2037535 287.97526642 -13.37940778 287.99981965 -22.55512327 288.03003854 C-33.01237689 288.06372091 -43.46963607 288.08010314 -53.92693055 288.09512484 C-75.41429598 288.12637379 -96.90156382 288.17904726 -118.38884544 288.24609566 Z " fill="#2B9E7D" transform="translate(414.3888454437256,-0.2460956573486328)"/>
<path d="M0 0 C0.33 0 0.66 0 1 0 C1.21499579 81.64846118 0.91847005 163.29072397 0.37890625 244.9375 C0.37102662 246.13076889 0.36314698 247.32403777 0.35502857 248.55346632 C0.15885952 278.22249861 -0.04544782 307.89147313 -0.25319763 337.56042635 C-0.38551139 356.457423 -0.51531091 375.35443519 -0.64282227 394.25146484 C-0.65122621 395.49669005 -0.65963015 396.74191526 -0.66828875 398.02487457 C-0.70215595 403.043951 -0.73601088 408.06302752 -0.76984974 413.08210415 C-1.44987421 513.9296237 -2.15430528 614.77693976 -3 719 C-9.30162053 719.01922052 -15.60323333 719.03223624 -21.90487671 719.04119873 C-24.04285973 719.04494023 -26.18084086 719.05003521 -28.31881714 719.05657959 C-43.65742683 719.10231161 -58.75466024 718.85559484 -74 717 C-75.55920166 716.82259277 -75.55920166 716.82259277 -77.14990234 716.64160156 C-108.12362845 713.03861966 -138.38248281 705.63205191 -168 696 C-169.10456543 695.64325195 -170.20913086 695.28650391 -171.34716797 694.91894531 C-237.37264341 673.39296629 -301.9501207 638.93730405 -355 594 C-356.06605475 593.10765282 -357.13248115 592.21574952 -358.19921875 591.32421875 C-364.06089038 586.41059542 -369.83608664 581.42058885 -375.48828125 576.265625 C-376.89100133 575.00034095 -378.2998091 573.74144698 -379.7303772 572.50773621 C-384.51936013 568.37739443 -389.07143178 564.07557179 -393.53515625 559.59765625 C-394.21750839 558.91626083 -394.89986053 558.23486542 -395.60289001 557.53282166 C-397.03344437 556.10294259 -398.46275767 554.67182089 -399.89086914 553.23950195 C-402.05699074 551.06802289 -404.22840174 548.90193675 -406.40039062 546.73632812 C-407.79979987 545.33625798 -409.19889884 543.93587762 -410.59765625 542.53515625 C-411.23639175 541.89844498 -411.87512726 541.2617337 -412.53321838 540.60572815 C-416.88551876 536.2310953 -420.9804651 531.68080725 -425 527 C-425.97329164 525.88223163 -426.94713666 524.76494452 -427.921875 523.6484375 C-434.87237758 515.62517685 -441.57016522 507.44645513 -448 499 C-448.52287598 498.31373535 -449.04575195 497.6274707 -449.58447266 496.92041016 C-463.1302454 479.04734892 -475.83969722 460.4623462 -487 441 C-487.34514648 440.40445312 -487.69029297 439.80890625 -488.04589844 439.1953125 C-490.76306574 434.49909627 -493.40238307 429.76330923 -496 425 C-496.45246094 424.17032715 -496.90492188 423.3406543 -497.37109375 422.48583984 C-510.36190126 398.49773288 -520.93827494 373.71636787 -530 348 C-530.32307129 347.09652832 -530.64614258 346.19305664 -530.97900391 345.26220703 C-550.36237882 290.83369026 -558.26035926 233.03818499 -558.046875 175.44140625 C-558.04310009 173.63968984 -558.03968037 171.83797265 -558.03662109 170.03625488 C-558.02848916 165.69081673 -558.01561882 161.34541742 -558 157 C-557.27261124 156.99668985 -556.54522247 156.99337971 -555.79579163 156.98996925 C-538.03152408 156.90846632 -520.26734063 156.81628657 -502.50318909 156.71247292 C-493.9123001 156.66252067 -485.32141983 156.616077 -476.73046875 156.578125 C-469.2356495 156.54500619 -461.74090159 156.50506803 -454.24616146 156.45720994 C-450.28407593 156.43214084 -446.3220365 156.41030384 -442.3598938 156.39665604 C-438.61702309 156.38365518 -434.87431217 156.36141498 -431.13153076 156.33261681 C-429.130769 156.31947565 -427.1299525 156.31565475 -425.12915039 156.31230164 C-394.23352209 156.0327186 -363.93594623 147.00172303 -340 127 C-339.00484375 126.16855469 -338.0096875 125.33710937 -336.984375 124.48046875 C-321.27158601 110.92359718 -310.12850664 93.42331776 -303 74 C-302.55785156 72.80632812 -302.11570312 71.61265625 -301.66015625 70.3828125 C-297.38748007 58.45799427 -295.86253222 46.59751011 -295 34 C-293 35 -293 35 -291.84375 38.3671875 C-291.39514102 39.86958512 -290.94728215 41.37220683 -290.5 42.875 C-279.48295949 77.62964363 -254.0127804 105.36502829 -222.08300781 122.21728516 C-192.20279992 137.48955188 -160.75377198 136.15482609 -128.15907311 136.10139394 C-123.64146595 136.09507169 -119.12385786 136.09454968 -114.60624695 136.09336853 C-106.08225011 136.09028104 -97.55826635 136.08210307 -89.03427523 136.07201904 C-77.49407873 136.058668 -65.95387856 136.0533371 -54.41367626 136.04751682 C-36.27577441 136.03816096 -18.13790014 136.01822498 0 136 C0 91.12 0 46.24 0 0 Z " fill="#36AF85" transform="translate(590,417)"/>
<path d="M0 0 C1.54884331 0.00056576 3.09768715 0.00024435 4.64653015 -0.00088501 C8.80470778 -0.0014531 12.96276734 0.01021192 17.1209178 0.02426291 C21.48373263 0.03686209 25.84655089 0.03794794 30.2093811 0.04031372 C38.45023623 0.04650172 46.69103758 0.06287582 54.93186915 0.0830127 C64.32257588 0.10545568 73.71328533 0.11638614 83.10401225 0.12640357 C102.40221691 0.14724477 121.70037169 0.18236798 140.99853516 0.22705078 C141.06885349 22.84643441 141.12163456 45.46579983 141.15397167 68.08527088 C141.16939052 78.58968082 141.19038388 89.09402254 141.22485352 99.59838867 C141.25490937 108.76211604 141.27414629 117.92579397 141.28080064 127.08956927 C141.28468569 131.93434094 141.2937101 136.77897126 141.31572533 141.62369728 C141.33634729 146.19963352 141.34231804 150.77537248 141.3378582 155.35135078 C141.33867207 157.01560291 141.34448261 158.67986283 141.35615158 160.34407425 C141.45547649 175.26308227 140.50622011 190.86551307 134.87353516 204.85205078 C134.57423096 205.62436035 134.27492676 206.39666992 133.96655273 207.19238281 C128.49608806 220.88739855 121.45121991 232.9310925 111.99853516 244.22705078 C111.36947266 244.99662109 110.74041016 245.76619141 110.09228516 246.55908203 C90.59654027 269.73243334 60.66396405 283.84766674 30.99853516 287.22705078 C21.23262508 288.06776967 11.51775314 288.36928357 1.71948242 288.34057617 C0.36753339 288.34029304 -0.9844158 288.34045448 -2.33636475 288.34101868 C-5.9531437 288.34130174 -9.56988846 288.33548554 -13.18665957 288.32844472 C-16.98625937 288.32212835 -20.78586024 288.32160091 -24.58546448 288.32041931 C-31.75670575 288.31733014 -38.92793149 288.30914981 -46.09916598 288.29906982 C-54.27347948 288.28783306 -62.44779379 288.28237931 -70.62211311 288.27737439 C-87.41523939 288.26696476 -104.20835013 288.24941282 -121.00146484 288.22705078 C-120.99869946 289.45948454 -120.99869946 289.45948454 -120.99587822 290.71681595 C-120.95153173 310.79403059 -120.91852735 330.87123668 -120.8978405 350.94849014 C-120.88756824 360.65806091 -120.87358628 370.36759879 -120.85058594 380.07714844 C-120.83052707 388.54906894 -120.81771905 397.0209656 -120.81328785 405.49290919 C-120.81070143 409.97047426 -120.80470882 414.44797119 -120.79000473 418.92551422 C-120.63975189 466.55602796 -120.63975189 466.55602796 -126.00146484 482.22705078 C-126.40560924 483.50684136 -126.8092095 484.78680385 -127.21240234 486.06689453 C-137.96674154 519.21682835 -160.44324453 545.09463011 -191.35302734 560.94580078 C-212.36832764 570.96769582 -232.48910042 574.40427846 -255.58251953 574.34057617 C-257.0029907 574.34029336 -258.42346202 574.34045386 -259.84393311 574.34101868 C-263.6612957 574.341303 -267.4786262 574.3354658 -271.29598141 574.32844472 C-275.29979727 574.32214991 -279.30361404 574.32160257 -283.30743408 574.32041931 C-290.87189207 574.31732394 -298.43633544 574.30913496 -306.00078702 574.29906982 C-314.62000448 574.28785269 -323.23922269 574.28238418 -331.85844564 574.27737439 C-349.57279364 574.26695066 -367.28712806 574.24938629 -385.00146484 574.22705078 C-385.04828964 551.14741978 -385.0835049 528.06779666 -385.10508919 504.98812771 C-385.11537976 494.27063339 -385.12939744 483.55316867 -385.15234375 472.83569336 C-385.1723458 463.48888775 -385.18519739 454.1421036 -385.18964183 444.79527718 C-385.19223771 439.85118169 -385.19829242 434.90714755 -385.21292496 429.96307182 C-385.22661681 425.29853343 -385.23066431 420.63408097 -385.22768021 415.96952438 C-385.22822523 414.26812204 -385.23213294 412.56671647 -385.23987579 410.86533165 C-385.37466148 379.68825478 -377.53986206 351.31480208 -357.00146484 327.22705078 C-356.40978516 326.48970703 -355.81810547 325.75236328 -355.20849609 324.99267578 C-338.96972292 305.46459887 -315.13837495 294.38559678 -291.00146484 288.22705078 C-292.28537109 288.08009766 -293.56927734 287.93314453 -294.89208984 287.78173828 C-319.03036067 284.80935106 -341.25360386 277.76447031 -361.00146484 263.22705078 C-361.80326172 262.64826172 -362.60505859 262.06947266 -363.43115234 261.47314453 C-376.26776426 251.72994565 -387.4332951 239.86241769 -396.00146484 226.22705078 C-396.39027832 225.6128125 -396.7790918 224.99857422 -397.1796875 224.36572266 C-412.33387099 200.0141299 -417.19613732 173.4672495 -417.11499023 145.10498047 C-417.11470739 143.73376976 -417.11486799 142.36255889 -417.11543274 140.99134827 C-417.11571692 137.30827842 -417.10988211 133.62524186 -417.10285878 129.94217968 C-417.09656152 126.07849997 -417.09601644 122.2148193 -417.09483337 118.35113525 C-417.09173871 111.05229676 -417.08355071 103.75347343 -417.07348388 96.45464158 C-417.06226451 88.1377159 -417.05679769 79.82078946 -417.05178845 71.50385809 C-417.04136633 54.41158025 -417.02380338 37.31931712 -417.00146484 20.22705078 C-393.99092939 20.15673855 -370.98041183 20.10395433 -347.96979046 20.07161427 C-337.28377869 20.05619414 -326.59783395 20.03519828 -315.91186523 20.00073242 C-306.58992473 19.97068054 -297.26803282 19.95144057 -287.94604522 19.9447853 C-283.01743759 19.94089959 -278.08896889 19.93187083 -273.16040611 19.90986061 C-268.50567626 19.88924499 -263.85114034 19.88326667 -259.19636917 19.88772774 C-257.5030912 19.88691359 -255.8098056 19.88109919 -254.11656761 19.86943436 C-216.95592789 19.62635155 -183.90184165 32.29224668 -157.00146484 58.22705078 C-139.64728319 76.01577454 -128.91627324 98.27777977 -123.00146484 122.22705078 C-122.96706299 121.56922607 -122.93266113 120.91140137 -122.8972168 120.23364258 C-120.78609042 82.59667795 -108.45550634 51.78832545 -80.00146484 26.22705078 C-57.5982094 6.97572765 -28.9553312 -0.15056767 0 0 Z " fill="#3E3C94" transform="translate(417.00146484375,-0.22705078125)"/>
<path d="M0 0 C0.33 0 0.66 0 1 0 C1.0342209 56.60189535 1.06606417 113.20379171 1.08468628 169.80569458 C1.08510045 171.06135656 1.08510045 171.06135656 1.08552299 172.34238545 C1.09150816 190.53296947 1.09704861 208.7235536 1.10213066 226.91413789 C1.10462543 235.83419742 1.10721853 244.75425692 1.10986328 253.67431641 C1.1101248 254.56199145 1.11038632 255.44966649 1.11065576 256.36424077 C1.1191855 285.16034021 1.13421336 313.95643182 1.15259444 342.75252651 C1.17144189 372.3328217 1.18376676 401.91311256 1.18782998 431.49341365 C1.18840633 435.66698693 1.1890576 439.84056019 1.18975449 444.01413345 C1.18995676 445.24631826 1.18995676 445.24631826 1.19016311 446.50339569 C1.19253081 459.75126943 1.20181837 472.99912981 1.21366407 486.24699809 C1.22541301 499.55061924 1.22994239 512.85422707 1.22700275 526.15785323 C1.22547625 534.07144983 1.22958458 541.9849979 1.24159509 549.89858578 C1.24993365 555.7930436 1.24794682 561.6874674 1.24179779 567.58192898 C1.24094654 569.97764319 1.24353683 572.37336137 1.24976636 574.76906763 C1.25769742 578.00519013 1.25352497 581.24106813 1.24609566 584.4771862 C1.2539767 585.89877695 1.2539767 585.89877695 1.26201695 587.3490867 C1.25752237 588.20503111 1.25302778 589.06097551 1.24839699 589.94285762 C1.24870895 590.68376559 1.24902092 591.42467355 1.24934233 592.18803328 C1 594 1 594 -1 596 C-18.03666379 585.67330715 -34.38471156 574.37478986 -50 562 C-50.84304687 561.33871094 -51.68609375 560.67742188 -52.5546875 559.99609375 C-62.1410904 552.41579114 -71.45877807 544.50079128 -80.48828125 536.265625 C-81.89100133 535.00034095 -83.2998091 533.74144698 -84.7303772 532.50773621 C-89.51936013 528.37739443 -94.07143178 524.07557179 -98.53515625 519.59765625 C-99.21750839 518.91626083 -99.89986053 518.23486542 -100.60289001 517.53282166 C-102.03344437 516.10294259 -103.46275767 514.67182089 -104.89086914 513.23950195 C-107.05699074 511.06802289 -109.22840174 508.90193675 -111.40039062 506.73632812 C-112.79979987 505.33625798 -114.19889884 503.93587762 -115.59765625 502.53515625 C-116.23639175 501.89844498 -116.87512726 501.2617337 -117.53321838 500.60572815 C-121.88551876 496.2310953 -125.9804651 491.68080725 -130 487 C-130.97329164 485.88223163 -131.94713666 484.76494452 -132.921875 483.6484375 C-139.87237758 475.62517685 -146.57016522 467.44645513 -153 459 C-153.52287598 458.31373535 -154.04575195 457.6274707 -154.58447266 456.92041016 C-168.1302454 439.04734892 -180.83969722 420.4623462 -192 401 C-192.34514648 400.40445312 -192.69029297 399.80890625 -193.04589844 399.1953125 C-195.76306574 394.49909627 -198.40238307 389.76330923 -201 385 C-201.45246094 384.17032715 -201.90492188 383.3406543 -202.37109375 382.48583984 C-215.36190126 358.49773288 -225.93827494 333.71636787 -235 308 C-235.32307129 307.09652832 -235.64614258 306.19305664 -235.97900391 305.26220703 C-255.36237882 250.83369026 -263.26035926 193.03818499 -263.046875 135.44140625 C-263.04310009 133.63968984 -263.03968037 131.83797265 -263.03662109 130.03625488 C-263.02848916 125.69081673 -263.01561882 121.34541742 -263 117 C-262.27261124 116.99668985 -261.54522247 116.99337971 -260.79579163 116.98996925 C-243.03152408 116.90846632 -225.26734063 116.81628657 -207.50318909 116.71247292 C-198.9123001 116.66252067 -190.32141983 116.616077 -181.73046875 116.578125 C-174.2356495 116.54500619 -166.74090159 116.50506803 -159.24616146 116.45720994 C-155.28407593 116.43214084 -151.3220365 116.41030384 -147.3598938 116.39665604 C-143.61702309 116.38365518 -139.87431217 116.36141498 -136.13153076 116.33261681 C-134.130769 116.31947565 -132.1299525 116.31565475 -130.12915039 116.31230164 C-99.23352209 116.0327186 -68.93594623 107.00172303 -45 87 C-44.00484375 86.16855469 -43.0096875 85.33710937 -41.984375 84.48046875 C-26.25847148 70.91228206 -15.15906675 53.4246007 -8 34 C-7.35417969 32.31390625 -7.35417969 32.31390625 -6.6953125 30.59375 C-3.06784943 20.54846764 -1.39744769 10.55470656 0 0 Z " fill="#1D8971" transform="translate(295,457)"/>
<path d="M0 0 C23.01053546 -0.07031223 46.02105301 -0.12309645 69.03167439 -0.15543652 C79.71768616 -0.17085664 90.40363089 -0.1918525 101.08959961 -0.22631836 C110.41154011 -0.25637024 119.73343202 -0.27561021 129.05541962 -0.28226548 C133.98402725 -0.28615119 138.91249596 -0.29517995 143.84105873 -0.31719017 C148.49578858 -0.33780579 153.1503245 -0.34378411 157.80509567 -0.33932304 C159.49837364 -0.34013719 161.19165925 -0.34595159 162.88489723 -0.35761642 C200.04553696 -0.60069923 233.09962319 12.0651959 260 38 C276.17002702 54.57491835 287.33785384 75.61315489 293 98 C293.17421919 98.66437513 293.34843838 99.32875027 293.52793694 100.01325798 C295.35288213 107.8825535 295.2678252 115.70464602 295.22705078 123.73095703 C295.22648567 125.29891452 295.22680518 126.86687253 295.22793579 128.43482971 C295.2285064 132.66348866 295.21679962 136.89203268 295.20278788 141.12066507 C295.19023162 145.55023513 295.18910617 149.97980821 295.18673706 154.40939331 C295.18053662 162.78496178 295.16414535 171.16047765 295.14403808 179.53602302 C295.12163425 189.07657386 295.1106744 198.61712729 295.10064721 208.15769792 C295.07977777 227.7718279 295.04462987 247.38591063 295 267 C273.32796194 267.20152492 251.65583602 267.38470011 229.98346424 267.54658794 C219.91848925 267.62218958 209.85362596 267.70358451 199.78881836 267.79907227 C191.0067581 267.88237503 182.22468691 267.95434514 173.44242781 268.01323253 C168.80098066 268.04473653 164.15972538 268.08155707 159.51844215 268.13199425 C122.17848536 268.530312 87.16141312 265.93952424 56 243 C55.19820312 242.42121094 54.39640625 241.84242188 53.5703125 241.24609375 C40.73370058 231.50289487 29.56816975 219.63536691 21 206 C20.61118652 205.38576172 20.22237305 204.77152344 19.82177734 204.13867188 C4.66759385 179.78707912 -0.19467247 153.24019872 -0.11352539 124.87792969 C-0.11324255 123.50671897 -0.11340315 122.13550811 -0.1139679 120.76429749 C-0.11425207 117.08122764 -0.10841727 113.39819108 -0.10139394 109.7151289 C-0.09509667 105.85144919 -0.0945516 101.98776852 -0.09336853 98.12408447 C-0.09027386 90.82524597 -0.08208587 83.52642265 -0.07201904 76.2275908 C-0.06079967 67.91066512 -0.05533284 59.59373868 -0.05032361 51.27680731 C-0.03990149 34.18452946 -0.02233853 17.09226634 0 0 Z " fill="#E34D16" transform="translate(0,20)"/>
<path d="M0 0 C1.65751111 0.00113182 3.31502422 0.00048811 4.97253418 -0.00177002 C9.4179074 -0.00290507 13.86283784 0.02040521 18.30810928 0.04852581 C22.97385589 0.07374405 27.63961567 0.0758974 32.30541992 0.08062744 C41.11647631 0.09299778 49.92733121 0.12573787 58.73829937 0.1660254 C68.77956325 0.21092945 78.8208374 0.23277674 88.8621769 0.25280714 C109.49546943 0.29447662 130.12858133 0.36471152 150.76171875 0.45410156 C150.80863093 21.36123691 150.84380113 42.26836346 150.86534309 63.17554092 C150.87561535 72.88511169 150.88959732 82.59464957 150.91259766 92.30419922 C150.93265653 100.77611972 150.94546454 109.24801638 150.94989574 117.71995997 C150.95248216 122.19752504 150.95847478 126.67502198 150.97317886 131.152565 C151.1234317 178.78307874 151.1234317 178.78307874 145.76171875 194.45410156 C145.35757436 195.73389215 144.95397409 197.01385463 144.55078125 198.29394531 C133.79644205 231.44387913 111.31993906 257.32168089 80.41015625 273.17285156 C59.39485595 283.1947466 39.27408317 286.63132925 16.18066406 286.56762695 C14.76019289 286.56734415 13.33972158 286.56750464 11.91925049 286.56806946 C8.1018879 286.56835378 4.28455739 286.56251658 0.46720219 286.5554955 C-3.53661367 286.54920069 -7.54043044 286.54865335 -11.54425049 286.54747009 C-19.10870848 286.54437472 -26.67315184 286.53618574 -34.23760343 286.5261206 C-42.85682089 286.51490347 -51.47603909 286.50943496 -60.09526205 286.50442517 C-77.80961005 286.49400144 -95.52394447 286.47643707 -113.23828125 286.45410156 C-113.28510605 263.37447056 -113.32032131 240.29484744 -113.34190559 217.21517849 C-113.35219616 206.49768417 -113.36621385 195.78021945 -113.38916016 185.06274414 C-113.40916221 175.71593853 -113.4220138 166.36915438 -113.42645824 157.02232796 C-113.42905412 152.07823248 -113.43510883 147.13419833 -113.44974136 142.1901226 C-113.46343322 137.52558421 -113.46748072 132.86113175 -113.46449661 128.19657516 C-113.46504163 126.49517282 -113.46894935 124.79376725 -113.4766922 123.09238243 C-113.61147788 91.91530556 -105.77667847 63.54185286 -85.23828125 39.45410156 C-84.64660156 38.71675781 -84.05492188 37.97941406 -83.4453125 37.21972656 C-72.6175034 24.19865123 -57.39041062 14.26216789 -41.92578125 7.70410156 C-41.29953857 7.43436523 -40.6732959 7.16462891 -40.02807617 6.88671875 C-26.82989307 1.56875751 -14.09608557 -0.13734056 0 0 Z " fill="#4346A1" transform="translate(145.23828125,287.5458984375)"/>
</svg>
