<?xml version="1.0" encoding="UTF-8"?>
<svg version="1.1" xmlns="http://www.w3.org/2000/svg" width="167" height="263">
<path d="M0 0 C5.17027855 1.03405571 6.18734067 1.66967851 9.8125 5.125 C10.68519531 5.94226563 11.55789062 6.75953125 12.45703125 7.6015625 C13.29621094 8.39304687 14.13539062 9.18453125 15 10 C16.32665658 11.17425347 17.65944926 12.34163364 19 13.5 C21.97391711 16.08653312 24.89780743 18.72194125 27.8125 21.375 C31.18940982 24.42858867 34.63217132 27.34429205 38.1875 30.1875 C39.56270995 31.33245282 40.93775296 32.47760739 42.31156051 33.62424254 C43.47438846 34.57172643 44.65457101 35.49817371 45.84817135 36.40658593 C59.47513376 46.81654371 59.47513376 46.81654371 60.66351783 55.35417914 C60.91391088 59.34977629 60.83673335 63.29786197 60.70288086 67.29638672 C60.69863993 69.09152874 60.70104395 70.8866967 60.70951843 72.68182373 C60.71378993 77.51375154 60.62617545 82.33999425 60.52090907 87.17060995 C60.42657119 92.23381101 60.41828447 97.29717019 60.40052795 102.3611145 C60.35406853 111.93128823 60.23121002 121.49886451 60.08028561 131.06789887 C59.91210601 141.96970311 59.83002303 152.87163728 59.75485408 163.77441764 C59.59843645 186.18438028 59.33492714 208.59204405 59 231 C55.4859396 232.92093162 51.9711798 234.84058009 48.45629883 236.76000977 C47.46817451 237.30017982 46.4800502 237.84034988 45.46198273 238.39688873 C38.24872089 242.33481114 30.99783966 246.18248875 23.6875 249.9375 C21.64909885 250.98703777 19.61132651 252.03779777 17.57421875 253.08984375 C16.63239746 253.57565918 15.69057617 254.06147461 14.72021484 254.56201172 C11.3792211 256.32816261 8.10690301 258.20167217 4.85083008 260.11938477 C3 261 3 261 0 261 C0 174.87 0 88.74 0 0 Z " fill="#20364A" transform="translate(46,2)"/>
<path d="M0 0 C0.44481565 18.43669805 0.77934554 36.87199554 0.98443127 55.31290817 C1.08221189 63.87661341 1.21536618 72.43697649 1.43334961 80.99853516 C1.6233713 88.46545503 1.74544626 95.92995498 1.7876814 103.39922547 C1.81236091 107.35194119 1.86983134 111.29773839 2.00887108 115.24822235 C2.821267 139.24013967 2.821267 139.24013967 -1.86039352 145.47931862 C-6.30555165 149.48095244 -11.22762325 151.94557588 -16.77052879 154.09340858 C-19.73176935 155.29756644 -22.27831263 156.95583355 -24.90625 158.76171875 C-26.07994141 159.50905273 -26.07994141 159.50905273 -27.27734375 160.27148438 C-28.82304415 161.2562232 -30.36720429 162.24338217 -31.91015625 163.23242188 C-33.05291016 163.95848633 -33.05291016 163.95848633 -34.21875 164.69921875 C-34.87810547 165.12033936 -35.53746094 165.54145996 -36.21679688 165.9753418 C-38 167 -38 167 -41 168 C-41.21045985 150.40616025 -41.36905442 132.81271457 -41.46630955 115.21790314 C-41.5126721 107.04783492 -41.57585182 98.87854983 -41.67895508 90.70898438 C-41.76880222 83.58638078 -41.82675678 76.46434441 -41.84679645 69.34118986 C-41.85850732 65.57090734 -41.88592404 61.80224716 -41.95157051 58.03248596 C-42.01293658 54.47954294 -42.03145252 50.92888043 -42.01796913 47.37545776 C-42.02160314 45.4587077 -42.06989944 43.54220296 -42.11978149 41.62609863 C-42.03086931 33.32328557 -42.03086931 33.32328557 -39.04647636 29.49234009 C-36.78811092 27.46029649 -34.50614576 25.71205342 -32 24 C-30.86689962 23.09832139 -29.73888402 22.19012111 -28.62109375 21.26953125 C-27.56204827 20.44773946 -26.50081766 19.62875648 -25.4375 18.8125 C-21.45361818 15.72671549 -17.50373961 12.60945381 -13.61328125 9.40625 C-12.88633057 8.8083667 -12.15937988 8.2104834 -11.41040039 7.59448242 C-9.98834635 6.42151684 -8.56946751 5.24468937 -7.15405273 4.0637207 C-6.51024658 3.53351318 -5.86644043 3.00330566 -5.203125 2.45703125 C-4.63239258 1.98241455 -4.06166016 1.50779785 -3.47363281 1.01879883 C-2 0 -2 0 0 0 Z " fill="#5D5D5B" transform="translate(41,82)"/>
<path d="M0 0 C3.85992294 1.92996147 6.97346822 4.20087554 10.3125 6.875 C10.91553955 7.35316162 11.5185791 7.83132324 12.13989258 8.32397461 C15.48468936 10.97994706 18.81583582 13.65297179 22.1484375 16.32421875 C22.82350342 16.8651416 23.49856934 17.40606445 24.1940918 17.96337891 C25.50154075 19.01222038 26.80773852 20.06262384 28.11254883 21.11474609 C30.68877782 23.18618052 33.24747512 25.16498341 36 27 C36.28613439 29.90070054 36.37808727 32.58696591 36.34057617 35.48876953 C36.34123329 36.80593964 36.34123329 36.80593964 36.34190369 38.14971924 C36.3398086 41.06097416 36.31644375 43.97165782 36.29296875 46.8828125 C36.28737536 48.89777308 36.28310405 50.91273774 36.28010559 52.92770386 C36.26863663 58.23788668 36.23915182 63.54782437 36.20599365 68.85791016 C36.17533693 74.27372928 36.16160967 79.68958792 36.14648438 85.10546875 C36.11428408 95.73708703 36.06306299 106.36852315 36 117 C31.19612423 118.85564602 26.39060573 120.70694675 21.58349609 122.55419922 C19.94761736 123.1835333 18.31219804 123.81406291 16.67724609 124.44580078 C14.33029345 125.3524162 11.98173482 126.25475215 9.6328125 127.15625 C8.53273361 127.5827887 8.53273361 127.5827887 7.41043091 128.01794434 C2.22774341 130 2.22774341 130 0 130 C0 87.1 0 44.2 0 0 Z " fill="#D39C1C" transform="translate(111,98)"/>
</svg>
